<svg width="184" height="32" viewBox="0 0 184 32" fill="none" xmlns="http://www.w3.org/2000/svg">
<g clip-path="url(#clip0_31093_52951)">
<g clip-path="url(#clip1_31093_52951)">
<path d="M19.0004 16.2742C10.8013 16.2742 4.15059 13.6283 4.15059 10.3617C4.15059 7.09516 10.7948 4.45577 19.0004 4.45577V0.699219C14.5709 0.699219 10.344 1.41133 7.1101 2.69836C1.26948 5.02415 0.394043 8.49978 0.394043 10.3617C0.394043 12.2237 1.26948 15.7058 7.1101 18.0316C10.344 19.3186 14.5709 20.0308 19.0004 20.0308V16.2742Z" fill="white"/>
<path d="M30.8903 6.44836C27.6564 5.16133 23.4295 4.44922 19 4.44922V8.20577C27.1991 8.20577 33.8498 10.8517 33.8498 14.1183C33.8498 17.3848 27.1991 20.0307 19 20.0307V23.7873C23.4295 23.7873 27.6564 23.0752 30.8903 21.7882C36.7309 19.4624 37.6064 15.9867 37.6064 14.1183C37.6064 12.2498 36.7309 8.77415 30.8903 6.44836Z" fill="white"/>
<path d="M0.688034 15.9922C0.465907 16.7043 0.394043 17.3445 0.394043 17.8672C0.394043 19.7357 1.26948 23.2113 7.1101 25.5371C10.344 26.8241 14.5709 27.5362 19.0004 27.5362V23.7862C14.5709 23.7862 10.344 23.0741 7.1101 21.7871C2.89623 20.1081 1.26948 17.828 0.688034 15.9922Z" fill="white"/>
<path d="M37.3124 19.7578C37.5345 20.4699 37.6064 21.1102 37.6064 21.6328C37.6064 23.5013 36.7309 26.9769 30.8903 29.3027C27.6564 30.5897 23.4295 31.3019 19 31.3019V27.5518C23.4295 27.5518 27.6564 26.8397 30.8903 25.5527C35.1042 23.8737 36.7309 21.6002 37.3124 19.7578Z" fill="white"/>
<path d="M19.0002 5.80078C11.5524 5.80078 5.50928 7.84565 5.50928 10.3609C5.50928 12.8762 11.5459 14.921 19.0002 14.921V5.80078Z" fill="white"/>
<path d="M19 9.55859C26.4478 9.55859 32.4909 11.6035 32.4909 14.1187C32.4909 16.634 26.4543 18.6788 19 18.6788V9.55859Z" fill="white"/>
</g>
<path fill-rule="evenodd" clip-rule="evenodd" d="M162.509 6.61149V10.4089C161.959 10.2646 161.414 10.2252 160.975 10.2252C158.345 10.2252 155.899 11.4648 155.899 15.0851V25.1327H152.279V6.86728H155.899V8.54626C156.81 7.3067 158.456 6.5 160.975 6.5C161.486 6.5 161.998 6.53935 162.509 6.61149ZM59.1886 20.4236H63.4973C62.002 23.4536 58.9656 25.4998 55.352 25.4998C50.0923 25.4998 46 21.2237 46 16.0359C46 10.8481 50.0923 6.53918 55.352 6.53918C60.6117 6.53918 64.5598 10.8153 64.5598 16.0359C64.5598 16.5081 64.5204 16.9869 64.4483 17.4263H49.8366C50.3874 20.2006 52.5779 22.2468 55.2799 22.2468C56.8538 22.2468 58.2048 21.591 59.1886 20.417V20.4236ZM49.9087 14.4684H60.5396C59.9559 11.8385 57.9097 9.9037 55.2799 9.9037C52.65 9.9037 50.5317 11.8385 49.9087 14.4684ZM76.4685 9.86435C73.2878 9.86435 70.7694 12.6386 70.7694 16.0031C70.7694 19.3676 73.2878 22.1747 76.4685 22.1747C78.3704 22.1747 79.8985 21.1188 80.8166 19.5447H84.7975C83.5186 22.9748 80.4494 25.3884 76.5079 25.3884C71.3203 25.3884 67.0444 21.1516 67.0444 15.9638C67.0444 10.776 71.3203 6.53918 76.5079 6.53918C80.3772 6.53918 83.4465 8.91337 84.7647 12.2779H80.6723C79.7607 10.7825 78.2589 9.86435 76.4751 9.86435H76.4685ZM86.4497 15.9639C86.4497 21.1517 90.647 25.3557 95.8345 25.3557C101.022 25.3557 105.187 21.1517 105.187 15.9639C105.187 10.7761 101.016 6.61145 95.8345 6.61145C90.6535 6.61145 86.4497 10.7761 86.4497 15.9639ZM101.389 16.036C101.389 19.4333 98.8644 22.1748 95.7624 22.1748C92.621 22.1748 90.1354 19.4006 90.1354 16.036C90.1354 12.6715 92.6538 9.89727 95.7624 9.89727C98.871 9.89727 101.389 12.6387 101.389 16.036ZM121.483 20.4236H125.792C124.296 23.4536 121.26 25.4998 117.646 25.4998C112.387 25.4998 108.294 21.2237 108.294 16.0359C108.294 10.8481 112.387 6.53918 117.646 6.53918C122.906 6.53918 126.854 10.8153 126.854 16.0359C126.854 16.5081 126.815 16.9869 126.743 17.4263H112.131C112.682 20.2006 114.872 22.2468 117.574 22.2468C119.148 22.2468 120.499 21.591 121.483 20.417V20.4236ZM112.203 14.4684H122.834C122.25 11.8385 120.204 9.9037 117.574 9.9037C114.944 9.9037 112.826 11.8385 112.203 14.4684ZM144.279 22.9422V25.1327H147.82V6.86728H144.279V9.16932C144.279 9.16932 142.455 6.65085 138.435 6.65085C133.208 6.65085 128.972 10.927 128.972 16.0754C128.972 21.2239 133.208 25.4607 138.435 25.4607C142.449 25.4607 144.279 22.9422 144.279 22.9422ZM144.206 16.1476C144.206 19.5121 141.688 22.2863 138.507 22.2863C135.327 22.2863 132.808 19.5449 132.808 16.1476C132.808 12.7503 135.327 9.93667 138.507 9.93667C141.688 9.93667 144.206 12.7831 144.206 16.1476ZM183.993 25.1327V14.7244L184 14.7178C184 8.25112 179.757 6.5 176.399 6.5C173.881 6.5 172.235 7.3067 171.323 8.54626V6.86728H167.703V25.1393H171.323V15.0917C171.323 11.4714 173.769 10.2318 176.399 10.2318C177.862 10.2318 180.38 11.3271 180.38 14.7244V25.1327H183.993Z" fill="white"/>
</g>
<defs>
<clipPath id="clip0_31093_52951">
<rect width="184" height="32" fill="white"/>
</clipPath>
<clipPath id="clip1_31093_52951">
<rect width="38" height="32" fill="white"/>
</clipPath>
</defs>
</svg>
